<svg width="191" height="191" viewBox="0 0 191 191" fill="none" xmlns="http://www.w3.org/2000/svg">
<path d="M137.537 137C134.228 138.915 132 142.491 132 146.589C132 146.736 132.003 146.881 132.008 147.026C132.279 153.987 142.795 153.987 143.065 147.026C143.071 146.881 143.075 146.736 143.075 146.589C143.075 142.491 140.846 138.915 137.537 137V137Z" fill="#84ABC1"/>
<path d="M137.537 152.247C134.841 152.247 132.146 150.506 132.011 147.026C132.005 146.88 132 146.734 132 146.589C132 142.492 134.228 138.915 137.537 137C136.871 138.915 136.422 142.492 136.422 146.589C136.422 146.734 136.422 146.88 136.424 147.026C136.452 150.506 136.994 152.247 137.537 152.247V152.247Z" fill="#4D87A1"/>
<path d="M54.5373 137C51.2283 138.915 49 142.491 49 146.589C49 146.736 49.003 146.881 49.0081 147.026C49.279 153.987 59.7955 153.987 60.0654 147.026C60.0715 146.881 60.0745 146.736 60.0745 146.589C60.0745 142.491 57.8462 138.915 54.5373 137V137Z" fill="#84ABC1"/>
<path d="M54.5373 152.247C51.8412 152.247 49.1461 150.506 49.0112 147.026C49.0051 146.88 49 146.734 49 146.589C49 142.492 51.2283 138.915 54.5373 137C53.8706 138.915 53.4221 142.492 53.4221 146.589C53.4221 146.734 53.4221 146.88 53.4241 147.026C53.4515 150.506 53.9944 152.247 54.5373 152.247V152.247Z" fill="#4D87A1"/>
<path d="M71.5373 158C68.2283 159.915 66 163.491 66 167.589C66 167.736 66.003 167.881 66.0081 168.026C66.279 174.987 76.7955 174.987 77.0654 168.026C77.0715 167.881 77.0745 167.736 77.0745 167.589C77.0745 163.491 74.8462 159.915 71.5373 158V158Z" fill="#84ABC1"/>
<path d="M71.5373 173.247C68.8412 173.247 66.1461 171.506 66.0112 168.026C66.0051 167.88 66 167.734 66 167.589C66 163.492 68.2283 159.915 71.5373 158C70.8706 159.915 70.4221 163.492 70.4221 167.589C70.4221 167.734 70.4221 167.88 70.4241 168.026C70.4515 171.506 70.9944 173.247 71.5373 173.247V173.247Z" fill="#4D87A1"/>
<path d="M153.537 156C150.228 157.915 148 161.491 148 165.589C148 165.736 148.003 165.881 148.008 166.026C148.279 172.987 158.795 172.987 159.065 166.026C159.071 165.881 159.075 165.736 159.075 165.589C159.075 161.491 156.846 157.915 153.537 156V156Z" fill="#84ABC1"/>
<path d="M153.537 171.247C150.841 171.247 148.146 169.506 148.011 166.026C148.005 165.88 148 165.734 148 165.589C148 161.492 150.228 157.915 153.537 156C152.871 157.915 152.422 161.492 152.422 165.589C152.422 165.734 152.422 165.88 152.424 166.026C152.452 169.506 152.994 171.247 153.537 171.247V171.247Z" fill="#4D87A1"/>
<path d="M175.537 102C172.228 103.915 170 107.491 170 111.589C170 111.736 170.003 111.881 170.008 112.026C170.279 118.987 180.795 118.987 181.065 112.026C181.071 111.881 181.075 111.736 181.075 111.589C181.075 107.491 178.846 103.915 175.537 102V102Z" fill="#84ABC1"/>
<path d="M175.537 117.247C172.841 117.247 170.146 115.506 170.011 112.026C170.005 111.88 170 111.734 170 111.589C170 107.492 172.228 103.915 175.537 102C174.871 103.915 174.422 107.492 174.422 111.589C174.422 111.734 174.422 111.88 174.424 112.026C174.452 115.506 174.994 117.247 175.537 117.247V117.247Z" fill="#4D87A1"/>
<path d="M40.5373 158C37.2283 159.915 35 163.491 35 167.589C35 167.736 35.003 167.881 35.0081 168.026C35.279 174.987 45.7955 174.987 46.0654 168.026C46.0715 167.881 46.0745 167.736 46.0745 167.589C46.0745 163.491 43.8462 159.915 40.5373 158V158Z" fill="#84ABC1"/>
<path d="M40.5373 173.247C37.8412 173.247 35.1461 171.506 35.0112 168.026C35.0051 167.88 35 167.734 35 167.589C35 163.492 37.2283 159.915 40.5373 158C39.8706 159.915 39.4221 163.492 39.4221 167.589C39.4221 167.734 39.4221 167.88 39.4241 168.026C39.4515 171.506 39.9944 173.247 40.5373 173.247V173.247Z" fill="#4D87A1"/>
<path d="M29.5373 51C26.2283 52.9148 24 56.4906 24 60.589C24 60.7361 24.003 60.8812 24.0081 61.0263C24.279 67.9873 34.7955 67.9873 35.0654 61.0263C35.0715 60.8812 35.0745 60.7361 35.0745 60.589C35.0745 56.4906 32.8462 52.9148 29.5373 51V51Z" fill="#84ABC1"/>
<path d="M29.5373 66.247C26.8412 66.247 24.1461 64.5058 24.0112 61.0263C24.0051 60.8802 24 60.7341 24 60.589C24 56.4916 26.2283 52.9148 29.5373 51C28.8706 52.9148 28.4221 56.4916 28.4221 60.589C28.4221 60.7341 28.4221 60.8802 28.4241 61.0263C28.4515 64.5058 28.9944 66.247 29.5373 66.247V66.247Z" fill="#4D87A1"/>
<path d="M118.537 156C115.228 157.915 113 161.491 113 165.589C113 165.736 113.003 165.881 113.008 166.026C113.279 172.987 123.795 172.987 124.065 166.026C124.071 165.881 124.075 165.736 124.075 165.589C124.075 161.491 121.846 157.915 118.537 156V156Z" fill="#84ABC1"/>
<path d="M118.537 171.247C115.841 171.247 113.146 169.506 113.011 166.026C113.005 165.88 113 165.734 113 165.589C113 161.492 115.228 157.915 118.537 156C117.871 157.915 117.422 161.492 117.422 165.589C117.422 165.734 117.422 165.88 117.424 166.026C117.452 169.506 117.994 171.247 118.537 171.247V171.247Z" fill="#4D87A1"/>
<path d="M83.5934 152.486H72.5851C72.152 152.486 71.8297 152.086 71.9207 151.663L75.9511 132.975H102.962L97.8644 149.365C97.7282 149.803 98.0554 150.246 98.5131 150.246H104.883C105.475 150.246 105.784 150.95 105.384 151.386L80.3065 178.654C79.8398 179.161 79.0012 178.731 79.1407 178.056L84.2586 153.302C84.3462 152.881 84.0239 152.486 83.5934 152.486Z" fill="#FFE44C"/>
<path d="M91.3051 153.303C91.392 152.881 91.0704 152.485 90.6396 152.485H83.593C84.0239 152.485 84.3455 152.881 84.2586 153.303L79.1407 178.057C79.0012 178.732 79.8398 179.162 80.3065 178.654L87.7335 170.578L91.3051 153.303Z" fill="#FFC200"/>
<path d="M87.4701 141.45H100.326L102.962 132.975H82.9977H75.9511L71.9207 151.663C71.8297 152.087 72.152 152.486 72.5851 152.486H79.6317C79.1985 152.486 78.8762 152.087 78.9672 151.663L79.8417 147.609C80.6169 144.016 83.7945 141.45 87.4701 141.45Z" fill="#FFC200"/>
<path d="M156.862 98.7545L156.039 97.109C153.315 91.6595 148.711 87.4049 143.073 85.1296L139.942 83.8658L147.392 70.5427L148.202 70.0977L150.628 68.657L150.774 68.5906C152.835 67.6501 155.037 67.1733 157.321 67.1733C164.668 67.1733 171.102 72.3244 172.72 79.4589C174.322 78.5043 176.149 78.0011 178.021 78.0011C183.742 78.0011 188.397 82.656 188.397 88.3778C188.397 94.0996 183.742 98.7545 178.021 98.7545H156.862Z" fill="#A3A3A0"/>
<path d="M149.314 77.3855L154.923 67.3561C153.492 67.5732 152.103 67.9839 150.774 68.5905L150.628 68.6569L148.202 70.0976L147.392 70.5427L141.819 80.509L139.942 83.8661L143.073 85.13C143.321 85.2299 143.564 85.3381 143.807 85.4459C149.109 87.7861 153.435 91.8989 156.039 97.1093L156.862 98.7548H164.085C162.137 91.8866 157.344 86.2084 151.065 83.0741C148.965 82.0255 148.169 79.4343 149.314 77.3855Z" fill="#8C8C8C"/>
<path d="M118.323 83.4021C118.283 81.8118 118.133 80.198 117.878 78.6058L117.701 77.5001L126.034 64.2401C126.641 63.2743 125.947 62.0171 124.806 62.0171H112.981C111.838 62.0171 111.143 60.7551 111.756 59.7893L123.891 40.6582C124.157 40.2385 124.619 39.9845 125.116 39.9845H148.89C149.938 39.9845 150.64 41.0615 150.218 42.0202L142.341 59.8945C141.918 60.8532 142.621 61.9302 143.669 61.9302H150.161C151.269 61.9302 151.968 63.1221 151.427 64.089L140.243 84.0896L138.159 83.7207C136.705 83.4629 135.245 83.3323 133.82 83.3323C129.865 83.3323 126.106 84.2232 122.645 85.9802L118.442 88.1145L118.323 83.4021Z" fill="#FFE44C"/>
<path d="M139.726 83.9982L140.243 84.0896L140.368 83.8657C140.154 83.9109 139.938 83.9478 139.726 83.9982Z" fill="#FFC200"/>
<path d="M123.438 59.7896L135.572 40.6586C135.838 40.2389 136.301 39.9849 136.798 39.9849H125.116C124.619 39.9849 124.157 40.2389 123.891 40.6586L111.756 59.7896C111.144 60.7554 111.838 62.0175 112.981 62.0175H124.663C123.519 62.0171 122.825 60.7551 123.438 59.7896Z" fill="#FFC200"/>
<path d="M131.123 74.7321L137.716 64.2401C138.323 63.2743 137.629 62.0171 136.488 62.0171H124.806C125.947 62.0171 126.642 63.2735 126.034 64.2401L117.701 77.5001L117.878 78.6058C118.134 80.198 118.283 81.8122 118.323 83.4021L118.441 88.1148L122.645 85.9806C124.975 84.7977 126.675 84.7842 129.243 84.3936L129.317 80.768C129.36 78.6297 129.985 76.5428 131.123 74.7321Z" fill="#FFC200"/>
<path d="M21.0157 47.7961C10.8635 47.7961 2.60387 39.5365 2.60387 29.3843C2.60387 19.2322 10.8635 10.9725 21.0157 10.9725C29.5969 10.9725 37.1097 16.9991 38.9798 25.3394C40.8551 24.2131 42.9972 23.6192 45.1929 23.6192C51.8586 23.6192 57.2816 29.0422 57.2816 35.7079C57.2816 42.3735 51.8586 47.7965 45.1929 47.7965H21.0157V47.7961Z" fill="#A3A3A0"/>
<path d="M16.7424 29.3843C16.7424 29.1195 16.748 28.8557 16.7588 28.5935C16.8084 27.4083 17.7929 26.4768 18.9792 26.4768H24.6107C26.545 26.4768 28.1129 24.9085 28.1129 22.9746V22.6486C28.1129 20.6654 26.4954 19.2199 24.5123 19.2359C22.4482 19.2527 21.495 16.7164 23.026 15.3428C23.2816 15.1134 23.5435 14.891 23.8113 14.6758C25.2378 13.5298 24.5563 11.2277 22.7343 11.0542C22.1673 11.0001 21.5943 10.9729 21.0157 10.9729C10.7449 10.9729 2.41138 19.4262 2.60723 29.741C2.79823 39.8211 11.2429 47.7969 21.3246 47.7969H31.5095C23.0719 45.919 16.7424 38.3789 16.7424 29.3843Z" fill="#8C8C8C"/>
<path d="M134.971 133.347H49.4774C34.5659 133.347 22.0498 121.147 22.1318 106.236C22.2076 92.4228 32.5481 81.0015 46.2688 79.5769C48.6198 61.5362 64.0979 47.9506 82.334 47.9506C102.389 47.9506 118.706 64.2673 118.706 84.3231C118.706 85.1871 118.675 86.0604 118.612 86.9341C118.578 87.406 119.106 87.703 119.494 87.4329C123.713 84.5011 128.631 82.9604 133.819 82.9604C147.71 82.9604 159.011 94.2619 159.011 108.153C159.011 121.323 148.728 132.358 135.601 133.277L135.276 133.351L134.971 133.347Z" fill="#A3A3A0"/>
<path d="M86.7229 50.5809C87.9219 50.0836 87.6839 48.321 86.3943 48.1766C85.061 48.0274 83.7068 47.9509 82.3344 47.9509C64.0983 47.9509 48.6198 61.5359 46.2692 79.5772C32.5485 81.0019 22.2079 92.4232 22.1322 106.236C22.0505 121.148 34.5663 133.347 49.4778 133.347H64.4042C50.8431 131.895 40.2456 120.387 40.2456 106.447C40.2456 93.0372 49.8855 81.8454 62.9333 79.7451H80.3091C83.4136 79.7451 85.9298 77.2285 85.9298 74.1244C85.9298 71.0199 83.4133 68.5037 80.3091 68.5037H73.6174C70.8844 68.5037 69.3128 65.4171 70.8975 63.1911C74.8667 57.6121 80.358 53.2206 86.7229 50.5809Z" fill="#8C8C8C"/>
</svg>
