<svg width="122" height="122" viewBox="0 0 122 122" fill="none" xmlns="http://www.w3.org/2000/svg">
<path d="M86.5958 92.9462C105.635 92.9462 121.069 77.8009 121.069 59.1182C121.069 40.4355 105.635 25.2902 86.5958 25.2902C67.557 25.2902 52.1229 40.4355 52.1229 59.1182C52.1229 77.8009 67.557 92.9462 86.5958 92.9462Z" fill="#FCB641"/>
<path d="M85.1683 16.5908C84.049 16.5908 83.1405 15.6824 83.1405 14.563V2.3961C83.1405 1.27675 84.049 0.368286 85.1683 0.368286C86.2877 0.368286 87.1961 1.27675 87.1961 2.3961V14.563C87.1961 15.6824 86.2877 16.5908 85.1683 16.5908Z" fill="#FCB641"/>
<path d="M111.368 25.0326C110.848 25.0326 110.329 24.8339 109.934 24.4385C109.141 23.6456 109.141 22.364 109.934 21.5711L118.538 12.9671C119.331 12.1742 120.612 12.1742 121.405 12.9671C122.198 13.76 122.198 15.0416 121.405 15.8344L112.801 24.4385C112.406 24.8339 111.887 25.0326 111.368 25.0326Z" fill="#FCB641"/>
<path d="M52.9686 31.0308C52.4495 31.0308 51.9303 30.8321 51.5349 30.4367L42.9329 21.8347C42.14 21.0418 42.14 19.7602 42.9329 18.9673C43.7258 18.1745 45.0074 18.1745 45.8002 18.9673L54.4022 27.5693C55.1951 28.3622 55.1951 29.6438 54.4022 30.4367C54.0068 30.8321 53.4877 31.0308 52.9686 31.0308Z" fill="#FCB641"/>
<path d="M108.034 91.62C107.75 91.62 97.2236 91.62 97.2236 91.62C97.4122 89.5922 97.538 89.4178 97.542 88.2052C97.5745 77.3888 90.3534 67.9392 79.7905 65.6113C73.7699 64.2851 68.0231 65.2645 63.2679 67.8317C57.4663 59.1973 47.8544 53.3734 36.8373 52.7001C35.4199 52.5055 33.9842 52.3899 32.514 52.3899C14.5577 52.3899 0 67.412 0 85.93C0 95.5803 3.97655 104.257 10.3033 110.375C15.8981 116.582 23.6666 120.593 32.8648 121.261C32.8648 121.261 107.75 121.632 108.034 121.632C115.565 121.632 121.669 114.735 121.669 106.624C121.669 98.5166 115.563 91.62 108.034 91.62Z" fill="#D3DDEA"/>
</svg>
