<svg width="135" height="135" viewBox="0 0 135 135" fill="none" xmlns="http://www.w3.org/2000/svg">
<path d="M129.727 62.2266H72.7734V5.27344C72.7734 2.36092 70.4125 0 67.5 0C64.5875 0 62.2266 2.36092 62.2266 5.27344V62.2266H5.27344C2.36092 62.2266 0 64.5875 0 67.5C0 70.4125 2.36092 72.7734 5.27344 72.7734H62.2266V129.727C62.2266 132.639 64.5875 135 67.5 135C70.4125 135 72.7734 132.639 72.7734 129.727V72.7734H129.727C132.639 72.7734 135 70.4125 135 67.5C135 64.5875 132.639 62.2266 129.727 62.2266Z" fill="black"/>
</svg>
