<svg width="133" height="133" viewBox="0 0 133 133" fill="none" xmlns="http://www.w3.org/2000/svg">
<path d="M5.53727 105.351C2.2283 107.266 0 110.842 0 114.94C0 115.087 0.00304414 115.232 0.00811768 115.378C0.279045 122.338 10.7955 122.338 11.0654 115.378C11.0715 115.232 11.0745 115.087 11.0745 114.94C11.0745 110.842 8.84624 107.266 5.53727 105.351Z" fill="#84ABC1"/>
<path d="M5.53727 120.598C2.84119 120.598 0.146118 118.857 0.0111618 115.378C0.00507353 115.231 0 115.085 0 114.94C0 110.843 2.2283 107.266 5.53727 105.351C4.86959 107.266 4.4221 110.843 4.4221 114.94C4.4221 115.085 4.4221 115.231 4.42413 115.378C4.45153 118.857 4.9944 120.598 5.53727 120.598Z" fill="#4D87A1"/>
<path d="M29.8091 115.705C26.4991 117.62 24.2719 121.196 24.2719 125.294C24.2719 125.441 24.2749 125.587 24.28 125.732C24.5499 132.693 35.0673 132.693 35.3373 125.732C35.3433 125.587 35.3454 125.441 35.3454 125.294C35.3464 121.196 33.1181 117.62 29.8091 115.705Z" fill="#84ABC1"/>
<path d="M29.8091 130.952C27.113 130.952 24.417 129.211 24.282 125.732C24.2769 125.586 24.2719 125.439 24.2719 125.294C24.2719 121.197 26.5002 117.62 29.8091 115.705C29.1414 117.62 28.6929 121.197 28.6929 125.294C28.6929 125.439 28.6929 125.586 28.696 125.732C28.7234 129.211 29.2663 130.952 29.8091 130.952Z" fill="#4D87A1"/>
<path d="M29.8091 87.2874C26.4991 89.2021 24.2719 92.7779 24.2719 96.8764C24.2719 97.0225 24.2749 97.1686 24.28 97.3127C24.5499 104.275 35.0673 104.275 35.3373 97.3127C35.3433 97.1686 35.3454 97.0225 35.3454 96.8764C35.3464 92.7779 33.1181 89.2021 29.8091 87.2874Z" fill="#84ABC1"/>
<path d="M29.8091 102.534C27.113 102.534 24.417 100.792 24.282 97.3127C24.2769 97.1676 24.2719 97.0215 24.2719 96.8754C24.2719 92.778 26.5002 89.2021 29.8091 87.2864C29.1414 89.2021 28.6929 92.778 28.6929 96.8754C28.6929 97.0215 28.6929 97.1676 28.696 97.3127C28.7234 100.792 29.2663 102.534 29.8091 102.534Z" fill="#4D87A1"/>
<path d="M54.08 105.351C50.771 107.266 48.5427 110.842 48.5427 114.94C48.5427 115.087 48.5457 115.232 48.5508 115.378C48.8217 122.338 59.3382 122.338 59.6081 115.378C59.6142 115.232 59.6172 115.087 59.6172 114.94C59.6172 110.842 57.3889 107.266 54.08 105.351Z" fill="#84ABC1"/>
<path d="M54.08 120.598C51.3839 120.598 48.6888 118.857 48.5539 115.378C48.5478 115.231 48.5427 115.085 48.5427 114.94C48.5427 110.843 50.771 107.266 54.08 105.351C53.4133 107.266 52.9648 110.843 52.9648 114.94C52.9648 115.085 52.9648 115.231 52.9668 115.378C52.9942 118.857 53.5371 120.598 54.08 120.598Z" fill="#4D87A1"/>
<path d="M78.3518 115.705C75.0428 117.62 72.8145 121.196 72.8145 125.294C72.8145 125.441 72.8166 125.587 72.8227 125.732C73.0926 132.693 83.61 132.693 83.88 125.732C83.886 125.587 83.8881 125.441 83.8881 125.294C83.8891 121.196 81.6608 117.62 78.3518 115.705Z" fill="#84ABC1"/>
<path d="M78.3518 130.952C75.6557 130.952 72.9596 129.211 72.8247 125.732C72.8196 125.586 72.8145 125.439 72.8145 125.294C72.8145 121.197 75.0428 117.62 78.3518 115.705C77.6841 117.62 77.2356 121.197 77.2356 125.294C77.2356 125.439 77.2356 125.586 77.2387 125.732C77.2661 129.211 77.8089 130.952 78.3518 130.952Z" fill="#4D87A1"/>
<path d="M127.035 115.705C123.726 117.62 121.497 121.196 121.497 125.294C121.497 125.441 121.5 125.587 121.505 125.732C121.776 132.693 132.293 132.693 132.563 125.732C132.569 125.587 132.572 125.441 132.572 125.294C132.572 121.196 130.343 117.62 127.035 115.705Z" fill="#84ABC1"/>
<path d="M127.035 115.705C123.726 117.62 121.497 121.196 121.497 125.294C121.497 125.441 121.5 125.587 121.505 125.732C121.776 132.693 132.293 132.693 132.563 125.732C132.569 125.587 132.572 125.441 132.572 125.294C132.572 121.196 130.343 117.62 127.035 115.705V115.705Z" fill="#84ABC1"/>
<path d="M127.035 115.705C123.726 117.62 121.497 121.196 121.497 125.294C121.497 125.441 121.5 125.587 121.505 125.732C121.776 132.693 132.293 132.693 132.563 125.732C132.569 125.587 132.572 125.441 132.572 125.294C132.572 121.196 130.343 117.62 127.035 115.705V115.705Z" fill="#84ABC1"/>
<path d="M127.035 115.705C123.726 117.62 121.497 121.196 121.497 125.294C121.497 125.441 121.5 125.587 121.505 125.732C121.776 132.693 132.293 132.693 132.563 125.732C132.569 125.587 132.572 125.441 132.572 125.294C132.572 121.196 130.343 117.62 127.035 115.705V115.705Z" fill="#84ABC1"/>
<path d="M127.035 115.705C123.726 117.62 121.497 121.196 121.497 125.294C121.497 125.441 121.5 125.587 121.505 125.732C121.776 132.693 132.293 132.693 132.563 125.732C132.569 125.587 132.572 125.441 132.572 125.294C132.572 121.196 130.343 117.62 127.035 115.705V115.705Z" fill="#84ABC1"/>
<path d="M127.035 115.705C123.726 117.62 121.497 121.196 121.497 125.294C121.497 125.441 121.5 125.587 121.505 125.732C121.776 132.693 132.293 132.693 132.563 125.732C132.569 125.587 132.572 125.441 132.572 125.294C132.572 121.196 130.343 117.62 127.035 115.705V115.705Z" fill="#84ABC1"/>
<path d="M127.035 115.705C123.726 117.62 121.497 121.196 121.497 125.294C121.497 125.441 121.5 125.587 121.505 125.732C121.776 132.693 132.293 132.693 132.563 125.732C132.569 125.587 132.572 125.441 132.572 125.294C132.572 121.196 130.343 117.62 127.035 115.705V115.705Z" fill="#84ABC1"/>
<path d="M127.035 115.705C123.726 117.62 121.497 121.196 121.497 125.294C121.497 125.441 121.5 125.587 121.505 125.732C121.776 132.693 132.293 132.693 132.563 125.732C132.569 125.587 132.572 125.441 132.572 125.294C132.572 121.196 130.343 117.62 127.035 115.705V115.705Z" fill="#84ABC1"/>
<path d="M127.035 115.705C123.726 117.62 121.497 121.196 121.497 125.294C121.497 125.441 121.5 125.587 121.505 125.732C121.776 132.693 132.293 132.693 132.563 125.732C132.569 125.587 132.572 125.441 132.572 125.294C132.572 121.196 130.343 117.62 127.035 115.705V115.705Z" fill="#84ABC1"/>
<path d="M127.035 130.952C124.338 130.952 121.643 129.211 121.508 125.732C121.502 125.586 121.497 125.439 121.497 125.294C121.497 121.197 123.726 117.62 127.035 115.705C126.367 117.62 125.918 121.197 125.918 125.294C125.918 125.439 125.918 125.586 125.921 125.732C125.949 129.211 126.492 130.952 127.035 130.952V130.952Z" fill="#4D87A1"/>
<path d="M102.623 105.351C99.3137 107.266 97.0854 110.842 97.0854 114.94C97.0854 115.087 97.0884 115.232 97.0935 115.378C97.3644 122.338 107.881 122.338 108.151 115.378C108.157 115.232 108.16 115.087 108.16 114.94C108.16 110.842 105.932 107.266 102.623 105.351Z" fill="#84ABC1"/>
<path d="M102.623 120.598C99.9266 120.598 97.2315 118.857 97.0965 115.378C97.0905 115.231 97.0854 115.085 97.0854 114.94C97.0854 110.843 99.3137 107.266 102.623 105.351C101.956 107.266 101.507 110.843 101.507 114.94C101.507 115.085 101.507 115.231 101.51 115.378C101.537 118.857 102.08 120.598 102.623 120.598Z" fill="#4D87A1"/>
<path d="M106.049 48.9841C106.049 58.8095 98.0838 66.776 88.2543 66.776H23.8619C10.7965 66.776 0.201904 56.1845 0.201904 43.116C0.201904 30.0506 10.7955 19.456 23.8619 19.456C25.0339 19.456 26.1856 19.5463 27.3149 19.7097C32.6584 9.09991 43.6467 1.81836 56.3417 1.81836C71.7014 1.81836 84.5699 12.483 87.9499 26.8107C88.2878 28.2404 88.5313 29.7056 88.6714 31.1993V31.2023C98.304 31.4235 106.049 39.2987 106.049 48.9841Z" fill="#84ABC1"/>
<path d="M67.6304 3.83658C64.1134 2.53065 60.3092 1.81934 56.3417 1.81934C43.6467 1.81934 32.6614 9.10089 27.3149 19.7076V19.7107C26.1856 19.5473 25.0339 19.457 23.8619 19.457C10.7924 19.457 0.201904 30.0516 0.201904 43.117C0.201904 56.1865 10.7924 66.777 23.8619 66.777H35.2966C23.5209 66.777 13.9786 57.2316 13.9786 45.4579C13.9786 35.0115 21.4936 26.3175 31.4164 24.494C32.3976 24.3104 33.4032 24.1967 34.4291 24.1561C34.7162 24.147 35.0064 24.1399 35.2966 24.1399C39.1241 24.1399 42.7182 25.1485 45.8212 26.9192C45.39 23.9156 42.285 21.1019 37.7066 18.834C40.221 10.3327 48.776 2.44846 67.6304 3.83658Z" fill="#4D87A1"/>
<path d="M68.7567 65.604C68.8856 65.6273 68.9617 65.6273 68.9739 65.6273H67.9886C68.2463 65.6273 68.501 65.6192 68.7567 65.604Z" fill="#84ABC1"/>
<path d="M133 83.2863C133 91.2325 126.558 97.6749 118.608 97.6749H66.5315C55.9653 97.6749 47.3971 89.1097 47.3971 78.5405C47.3971 67.9733 55.9653 59.4061 66.5315 59.4061C67.4792 59.4061 68.4117 59.4792 69.324 59.6111C73.6466 51.0297 82.5324 45.1414 92.7993 45.1414C105.222 45.1414 115.629 53.7664 118.363 65.3534C118.636 66.5101 118.833 67.6953 118.946 68.9028V68.9059C126.736 69.0834 133 75.4528 133 83.2863Z" fill="#D3DDEA"/>
<path d="M101.929 46.774C99.0844 45.7177 96.0078 45.1423 92.7993 45.1423C82.5324 45.1423 73.6486 51.0307 69.324 59.609V59.6121C68.4107 59.4792 67.4792 59.4071 66.5315 59.4071C55.9623 59.4071 47.3971 67.9743 47.3971 78.5415C47.3971 89.1107 55.9623 97.6759 66.5315 97.6759H75.7795C66.2555 97.6759 58.5386 89.956 58.5386 80.4349C58.5386 71.9855 64.6157 64.9545 72.641 63.4802C73.4356 63.331 74.2483 63.2397 75.0774 63.2072C75.3097 63.1991 75.5451 63.194 75.7795 63.194C78.8754 63.194 81.7815 64.0098 84.2909 65.4406C83.9429 63.0114 81.4315 60.7364 77.7288 58.9028C79.7613 52.0271 86.6806 45.6507 101.929 46.774Z" fill="#84ABC1"/>
</svg>
