<svg width="130" height="130" viewBox="0 0 130 130" fill="none" xmlns="http://www.w3.org/2000/svg">
<path d="M64.9999 107.391C88.4119 107.391 107.391 88.412 107.391 64.9999C107.391 41.5879 88.4119 22.6086 64.9999 22.6086C41.5878 22.6086 22.6086 41.5879 22.6086 64.9999C22.6086 88.412 41.5878 107.391 64.9999 107.391Z" fill="#FCB641"/>
<path d="M64.9999 16.9565C66.5607 16.9565 67.8261 15.6911 67.8261 14.1303V2.82617C67.8261 1.26538 66.5607 0 64.9999 0C63.4391 0 62.1737 1.26538 62.1737 2.82617V14.1306C62.174 15.6911 63.4391 16.9565 64.9999 16.9565Z" fill="#FCB641"/>
<path d="M64.9999 113.043C63.4391 113.043 62.1737 114.309 62.1737 115.87V127.174C62.1737 128.735 63.4391 130 64.9999 130C66.5607 130 67.8261 128.735 67.8261 127.174V115.869C67.8261 114.309 66.5607 113.043 64.9999 113.043Z" fill="#FCB641"/>
<path d="M127.174 62.174H115.869C114.309 62.174 113.043 63.4393 113.043 65.0001C113.043 66.5609 114.309 67.8263 115.869 67.8263H127.174C128.735 67.8263 130 66.5609 130 65.0001C130 63.4391 128.735 62.174 127.174 62.174Z" fill="#FCB641"/>
<path d="M16.9565 64.9999C16.9565 63.4391 15.6911 62.1737 14.1303 62.1737H2.82617C1.26538 62.174 0 63.4391 0 64.9999C0 66.5607 1.26538 67.826 2.82617 67.826H14.1306C15.6911 67.826 16.9565 66.5607 16.9565 64.9999Z" fill="#FCB641"/>
<path d="M37.1178 22.3602C37.6236 23.2363 38.5591 23.7752 39.571 23.7731C40.0672 23.775 40.5552 23.6443 40.9839 23.3945C42.3357 22.614 42.7985 20.8857 42.0183 19.534L36.3662 9.74451C35.5769 8.39806 33.8455 7.94633 32.499 8.7356C31.165 9.51745 30.7072 11.2264 31.4716 12.5704L37.1178 22.3602Z" fill="#FCB641"/>
<path d="M92.8822 107.64C92.0927 106.293 90.3612 105.842 89.0148 106.631C87.6813 107.414 87.2235 109.122 87.9873 110.466L93.6394 120.256C94.1452 121.132 95.0807 121.671 96.0925 121.668C96.5888 121.67 97.0768 121.54 97.5055 121.29C98.8572 120.509 99.3201 118.781 98.5398 117.429L92.8822 107.64Z" fill="#FCB641"/>
<path d="M109.053 42.3913C109.549 42.3932 110.037 42.2626 110.466 42.0127L120.255 36.3606C121.638 35.6371 122.173 33.9295 121.449 32.5465C120.726 31.1635 119.018 30.6288 117.635 31.3524C117.565 31.3892 117.496 31.4289 117.429 31.4716L107.64 37.1237C106.288 37.9042 105.825 39.6327 106.605 40.9842C107.11 41.8585 108.043 42.3971 109.053 42.3971V42.3913H109.053Z" fill="#FCB641"/>
<path d="M19.5339 87.9874L9.74444 93.6394C8.39268 94.42 7.92982 96.1482 8.71009 97.5C9.21481 98.3743 10.1477 98.9129 11.1574 98.9129C11.6536 98.9148 12.1417 98.7841 12.5703 98.5343L22.3598 92.8822C23.7428 92.1587 24.2775 90.4511 23.5539 89.0681C22.8304 87.6851 21.1228 87.1504 19.7398 87.874C19.6693 87.9108 19.6007 87.9505 19.5336 87.9932L19.5339 87.9874Z" fill="#FCB641"/>
<path d="M9.74441 36.3603L19.5339 42.0124C19.9612 42.2612 20.4469 42.3921 20.9413 42.391C22.5021 42.391 23.7672 41.1256 23.7672 39.5648C23.7672 38.5554 23.2286 37.6225 22.3542 37.1175L12.5648 31.4655C11.2475 30.6282 9.50093 31.0172 8.6637 32.3342C7.82647 33.6513 8.21541 35.398 9.53246 36.2353C9.59949 36.2779 9.66811 36.3177 9.73859 36.3545L9.74441 36.3603Z" fill="#FCB641"/>
<path d="M120.256 93.6394L110.466 87.9873C109.149 87.1501 107.402 87.539 106.565 88.8561C105.728 90.1731 106.117 91.9199 107.434 92.7571C107.501 92.7998 107.57 92.8395 107.64 92.8763L117.429 98.5284C117.858 98.7783 118.346 98.9089 118.842 98.907C120.403 98.907 121.668 97.6417 121.668 96.0809C121.668 95.0712 121.13 94.1383 120.255 93.6336V93.6394H120.256Z" fill="#FCB641"/>
<path d="M89.0217 23.3944C89.4506 23.6443 89.9384 23.7749 90.4347 23.773C91.4462 23.7752 92.3817 23.236 92.8878 22.3601L98.5399 12.5706C99.3111 11.2138 98.8363 9.4885 97.4795 8.71725C96.1355 7.95341 94.4271 8.41097 93.645 9.7447L87.9929 19.5342C87.2116 20.8841 87.6721 22.612 89.0217 23.3944Z" fill="#FCB641"/>
<path d="M40.9783 106.606C39.6266 105.825 37.8983 106.288 37.1178 107.64L31.4657 117.429C30.6855 118.781 31.1483 120.509 32.5001 121.29C32.929 121.54 33.4168 121.67 33.913 121.669C34.9246 121.671 35.8604 121.132 36.3662 120.256L42.0183 110.466C42.7972 109.114 42.3325 107.386 40.9799 106.607C40.9794 106.606 40.9789 106.606 40.9783 106.606Z" fill="#FCB641"/>
</svg>
