<svg width="151" height="151" viewBox="0 0 151 151" fill="none" xmlns="http://www.w3.org/2000/svg">
<path d="M139.203 134.199C144.58 132.882 148.641 127.166 148.641 120.328C148.641 113.491 144.58 107.774 139.203 106.457V30.6719H134.484V21.2344H125.047V11.7969H120.269L120.328 2.37357L115.609 2.3429L115.55 11.7969H110.891V21.2344H101.453V30.6719H96.7344V51.1466C91.6192 52.5362 86.8297 54.7894 82.5781 57.8V35.3907H92.0156V21.2344H80.2188V11.7969H75.441L75.5 2.37357L70.7812 2.3429L70.7223 11.7969H66.0625V21.2344H54.2656V35.3907H63.7031V80.7355L54.2656 78.3761V58.9844H58.9844V54.2657H44.8281V40.1094H40.1094V54.2657H35.3906V49.5469H30.6719V54.2657H25.9531V44.8282H21.2344V54.2657H7.07812V58.9844H11.7969V132.186C8.94911 134.34 7.07812 137.724 7.07812 141.563C7.07812 142.36 7.1843 143.146 7.34237 143.922H2.35938V148.641H148.641V143.922H139.203V134.199ZM68.4219 130.78C65.0503 129.32 60.9946 129.504 57.8094 131.358C54.7068 127.411 49.9362 125.047 44.8281 125.047C41.341 125.047 38.0897 126.144 35.3906 128.022V78.5224L68.4219 86.7802V130.78ZM70.2008 82.3587L70.4627 81.7052C75.6722 66.0437 89.845 55.2849 106.172 54.3341V136.124C103.546 134.869 100.59 134.263 97.5342 134.56C94.8469 128.796 89.0664 125.047 82.5781 125.047C79.1405 125.047 75.8681 126.139 73.1406 128.043V83.0949L70.2008 82.3587ZM115.609 120.328V129.185C112.87 127.883 110.891 124.424 110.891 120.328C110.891 115.123 114.066 110.891 117.969 110.891C121.871 110.891 125.047 115.123 125.047 120.328C125.047 124.424 123.067 127.883 120.328 129.185V120.328H115.609ZM110.891 139.522V131.625C112.264 132.868 113.863 133.77 115.609 134.197V143.922H113.96C113.172 142.273 112.136 140.798 110.891 139.522ZM120.328 134.199C123.211 133.493 125.703 131.514 127.406 128.787C129.11 131.516 131.601 133.493 134.484 134.199V143.922H120.328V134.199ZM143.922 120.328C143.922 124.424 141.942 127.883 139.203 129.185V120.328H134.484V129.185C131.745 127.883 129.766 124.424 129.766 120.328C129.766 115.123 132.941 110.891 136.844 110.891C140.746 110.891 143.922 115.123 143.922 120.328ZM115.609 16.5157H120.328V21.2344H115.609V16.5157ZM106.172 25.9532H110.891H125.047H129.766V30.6719H106.172V25.9532ZM101.453 35.3907H134.484V106.457C131.601 107.163 129.11 109.142 127.406 111.87C125.252 108.42 121.829 106.172 117.969 106.172C115.312 106.172 112.865 107.245 110.891 109.029V49.5469H108.531C106.132 49.5469 103.768 49.738 101.453 50.1061V35.3907ZM70.7812 16.5157H75.5V21.2344H70.7812V16.5157ZM58.9844 25.9532H87.2969V30.6719H58.9844V25.9532ZM77.8594 35.3907V61.6717C74.0254 65.2627 70.8119 69.5355 68.4219 74.3557V35.3907H77.8594ZM16.5156 58.9844H49.5469V77.1964L30.6719 72.4777V133.099C30.3817 133.59 30.0868 134.079 29.8437 134.602C29.3483 134.534 28.8434 134.496 28.3196 134.491C26.1065 131.545 22.6099 129.766 18.875 129.766C18.0681 129.766 17.2777 129.848 16.5156 130.004V58.9844ZM11.7969 141.563C11.7969 137.66 14.9726 134.484 18.875 134.484C21.4255 134.484 23.7896 135.865 25.0448 138.087L25.7762 139.382L28.3125 139.203C29.0062 139.203 29.7376 139.338 30.5515 139.611L32.8425 140.38L33.5574 138.071C35.0933 133.104 39.6233 129.766 44.8281 129.766C49.1198 129.766 53.0789 132.104 55.1575 135.869L56.6321 138.54L58.8452 136.44C61.5065 133.921 65.895 133.921 68.5564 136.44L70.7695 138.54L72.2441 135.869C74.3274 132.104 78.2864 129.766 82.5781 129.766C87.7003 129.766 92.2067 133.04 93.7922 137.915L94.4552 139.951L96.548 139.489C101.212 138.453 105.787 140.376 108.477 143.922H12.2546C11.9856 143.162 11.7969 142.377 11.7969 141.563Z" fill="black"/>
<path d="M40.1094 63.7031H44.8281V68.4219H40.1094V63.7031Z" fill="black"/>
<path d="M21.2344 63.7031H25.9531V68.4219H21.2344V63.7031Z" fill="black"/>
<path d="M30.6719 63.7031H35.3906V68.4219H30.6719V63.7031Z" fill="black"/>
<path d="M21.2344 101.453H25.9531V106.172H21.2344V101.453Z" fill="black"/>
<path d="M21.2344 92.0156H25.9531V96.7344H21.2344V92.0156Z" fill="black"/>
<path d="M21.2344 82.5781H25.9531V87.2969H21.2344V82.5781Z" fill="black"/>
<path d="M21.2344 110.891H25.9531V115.609H21.2344V110.891Z" fill="black"/>
<path d="M21.2344 73.1406H25.9531V77.8594H21.2344V73.1406Z" fill="black"/>
<path d="M21.2344 120.328H25.9531V125.047H21.2344V120.328Z" fill="black"/>
<path d="M125.047 40.1094H129.766V44.8281H125.047V40.1094Z" fill="black"/>
<path d="M115.609 40.1094H120.328V44.8281H115.609V40.1094Z" fill="black"/>
<path d="M106.172 40.1094H110.891V44.8281H106.172V40.1094Z" fill="black"/>
<path d="M40.1094 115.609H44.8281V120.328H40.1094V115.609Z" fill="black"/>
<path d="M40.1094 106.172H44.8281V110.891H40.1094V106.172Z" fill="black"/>
<path d="M40.1094 96.7344H44.8281V101.453H40.1094V96.7344Z" fill="black"/>
<path d="M40.1094 87.2969H44.8281V92.0156H40.1094V87.2969Z" fill="black"/>
<path d="M49.5469 87.2969H54.2656V92.0156H49.5469V87.2969Z" fill="black"/>
<path d="M49.5469 96.7344H54.2656V101.453H49.5469V96.7344Z" fill="black"/>
<path d="M49.5469 115.609H54.2656V120.328H49.5469V115.609Z" fill="black"/>
<path d="M49.5469 106.172H54.2656V110.891H49.5469V106.172Z" fill="black"/>
<path d="M58.9844 115.609H63.7031V120.328H58.9844V115.609Z" fill="black"/>
<path d="M58.9844 96.7344H63.7031V101.453H58.9844V96.7344Z" fill="black"/>
<path d="M58.9844 87.2969H63.7031V92.0156H58.9844V87.2969Z" fill="black"/>
<path d="M58.9844 106.172H63.7031V110.891H58.9844V106.172Z" fill="black"/>
<path d="M87.2969 115.609H92.0156V120.328H87.2969V115.609Z" fill="black"/>
<path d="M77.8594 115.609H82.5781V120.328H77.8594V115.609Z" fill="black"/>
<path d="M96.7344 115.609H101.453V120.328H96.7344V115.609Z" fill="black"/>
<path d="M87.2969 106.172H92.0156V110.891H87.2969V106.172Z" fill="black"/>
<path d="M77.8594 106.172H82.5781V110.891H77.8594V106.172Z" fill="black"/>
<path d="M96.7344 106.172H101.453V110.891H96.7344V106.172Z" fill="black"/>
<path d="M96.7344 96.7344H101.453V101.453H96.7344V96.7344Z" fill="black"/>
<path d="M77.8594 96.7344H82.5781V101.453H77.8594V96.7344Z" fill="black"/>
<path d="M87.2969 96.7344H92.0156V101.453H87.2969V96.7344Z" fill="black"/>
<path d="M77.8594 87.2969H82.5781V92.0156H77.8594V87.2969Z" fill="black"/>
<path d="M96.7344 87.2969H101.453V92.0156H96.7344V87.2969Z" fill="black"/>
<path d="M87.2969 87.2969H92.0156V92.0156H87.2969V87.2969Z" fill="black"/>
<path d="M96.7344 77.8594H101.453V82.5781H96.7344V77.8594Z" fill="black"/>
<path d="M87.2969 77.8594H92.0156V82.5781H87.2969V77.8594Z" fill="black"/>
<path d="M77.8594 77.8594H82.5781V82.5781H77.8594V77.8594Z" fill="black"/>
<path d="M87.2969 68.4219H92.0156V73.1406H87.2969V68.4219Z" fill="black"/>
<path d="M96.7344 68.4219H101.453V73.1406H96.7344V68.4219Z" fill="black"/>
<path d="M115.609 49.5469H120.328V54.2656H115.609V49.5469Z" fill="black"/>
<path d="M125.047 49.5469H129.766V54.2656H125.047V49.5469Z" fill="black"/>
<path d="M125.047 58.9844H129.766V63.7031H125.047V58.9844Z" fill="black"/>
<path d="M115.609 58.9844H120.328V63.7031H115.609V58.9844Z" fill="black"/>
<path d="M115.609 68.4219H120.328V73.1406H115.609V68.4219Z" fill="black"/>
<path d="M125.047 68.4219H129.766V73.1406H125.047V68.4219Z" fill="black"/>
<path d="M125.047 77.8594H129.766V82.5781H125.047V77.8594Z" fill="black"/>
<path d="M115.609 77.8594H120.328V82.5781H115.609V77.8594Z" fill="black"/>
<path d="M115.609 87.2969H120.328V92.0156H115.609V87.2969Z" fill="black"/>
<path d="M125.047 87.2969H129.766V92.0156H125.047V87.2969Z" fill="black"/>
<path d="M125.047 96.7344H129.766V101.453H125.047V96.7344Z" fill="black"/>
<path d="M115.609 96.7344H120.328V101.453H115.609V96.7344Z" fill="black"/>
</svg>
