<svg width="140" height="140" viewBox="0 0 140 140" fill="none" xmlns="http://www.w3.org/2000/svg">
<path d="M89.6127 121.552C86.2161 123.517 83.9293 127.187 83.9293 131.393C83.9293 131.544 83.9325 131.693 83.9378 131.842C84.2155 138.986 95.0099 138.986 95.2876 131.842C95.293 131.693 95.2962 131.544 95.2962 131.393C95.2962 127.187 93.0093 123.517 89.6127 121.552Z" fill="#84ABC1"/>
<path d="M89.6127 137.2C86.8463 137.2 84.0799 135.412 83.941 131.842C83.9357 131.692 83.9293 131.543 83.9293 131.393C83.9293 127.187 86.2172 123.517 89.6127 121.552C88.9281 123.517 88.4677 127.187 88.4677 131.393C88.4677 131.543 88.4677 131.692 88.4709 131.842C88.4987 135.412 89.0552 137.2 89.6127 137.2Z" fill="#4D87A1"/>
<path d="M7.76199 121.552C4.36645 123.517 2.07962 127.187 2.07962 131.393C2.07962 131.544 2.08176 131.693 2.08817 131.842C2.36481 138.986 13.1592 138.986 13.4369 131.842C13.4422 131.693 13.4454 131.544 13.4454 131.393C13.4454 127.187 11.1586 123.517 7.76199 121.552Z" fill="#84ABC1"/>
<path d="M7.76199 137.2C4.99557 137.2 2.22916 135.412 2.0903 131.842C2.08496 131.692 2.07962 131.543 2.07962 131.393C2.07962 127.187 4.36646 123.517 7.76199 121.552C7.07733 123.517 6.61697 127.187 6.61697 131.393C6.61697 131.543 6.61697 131.692 6.62018 131.842C6.64795 135.412 7.20551 137.2 7.76199 137.2Z" fill="#4D87A1"/>
<path d="M137.92 62.6098C137.92 75.2199 127.697 85.4429 115.083 85.4429H32.444C15.6757 85.4429 2.07962 71.8511 2.07962 55.0785C2.07962 38.3112 15.6757 24.7152 32.444 24.7152C33.9479 24.7152 35.4272 24.8305 36.8756 25.041C43.734 11.4236 57.8352 2.07861 74.1283 2.07861C93.8403 2.07861 110.356 15.7654 114.693 34.153C115.127 35.9881 115.439 37.8701 115.619 39.7852V39.7895C127.98 40.0725 137.92 50.1801 137.92 62.6098Z" fill="#D3DDEA"/>
<path d="M88.6151 4.6698C84.1012 2.99393 79.2189 2.08069 74.1272 2.08069C57.8352 2.08069 43.7372 11.4246 36.8756 25.0377V25.042C35.4262 24.8315 33.9479 24.7162 32.4429 24.7162C15.6703 24.7162 2.07962 38.3122 2.07962 55.0806C2.07962 71.8521 15.6714 85.4449 32.4429 85.4449H47.1188C32.0061 85.4449 19.7601 73.1947 19.7601 58.0852C19.7601 44.6782 29.4041 33.5207 42.1382 31.1804C43.3986 30.9444 44.6889 30.7991 46.0048 30.7468C46.3733 30.735 46.7461 30.7254 47.1188 30.7254C52.0311 30.7254 56.6432 32.02 60.6251 34.2918C60.0719 30.437 56.0867 26.8268 50.2121 23.9172C53.4378 13.0064 64.418 2.88712 88.6151 4.6698Z" fill="#97B0CC"/>
<path d="M113.102 97.9729C109.706 99.9382 107.419 103.608 107.419 107.815C107.419 107.965 107.421 108.115 107.428 108.263C107.704 115.408 118.499 115.408 118.777 108.263C118.782 108.115 118.785 107.965 118.785 107.815C118.785 103.608 116.498 99.9382 113.102 97.9729Z" fill="#84ABC1"/>
<path d="M113.102 113.622C110.335 113.622 107.569 111.834 107.43 108.263C107.425 108.114 107.419 107.964 107.419 107.815C107.419 103.608 109.706 99.9382 113.102 97.9729C112.417 99.9382 111.957 103.608 111.957 107.815C111.957 107.964 111.957 108.114 111.96 108.263C111.988 111.834 112.545 113.622 113.102 113.622Z" fill="#4D87A1"/>
<path d="M26.8973 97.9729C23.5007 99.9382 21.2138 103.608 21.2138 107.815C21.2138 107.965 21.217 108.115 21.2224 108.263C21.5001 115.408 32.2945 115.408 32.5722 108.263C32.5775 108.115 32.5807 107.965 32.5807 107.815C32.5807 103.608 30.2939 99.9382 26.8973 97.9729Z" fill="#84ABC1"/>
<path d="M26.8973 113.622C24.1309 113.622 21.3644 111.834 21.2256 108.263C21.2202 108.114 21.2138 107.964 21.2138 107.815C21.2138 103.608 23.5017 99.9382 26.8973 97.9729C26.2126 99.9382 25.7523 103.608 25.7523 107.815C25.7523 107.964 25.7523 108.114 25.7555 108.263C25.7832 111.834 26.3397 113.622 26.8973 113.622Z" fill="#4D87A1"/>
<path d="M57.8705 124.074C57.2969 123.08 56.0248 122.739 55.0304 123.314L50.7664 125.775V120.852C50.7664 119.704 49.8361 118.772 48.6879 118.772C47.5397 118.772 46.6083 119.704 46.6083 120.852V125.775L42.3454 123.314C41.3499 122.739 40.0789 123.08 39.5053 124.074C38.9306 125.069 39.2714 126.341 40.2658 126.915L44.5297 129.377L40.2658 131.838C39.2714 132.412 38.9306 133.683 39.5053 134.678C39.8898 135.345 40.5884 135.718 41.3072 135.718C41.6597 135.718 42.0175 135.628 42.3454 135.439L46.6083 132.977V137.9C46.6083 139.048 47.5397 139.98 48.6879 139.98C49.8361 139.98 50.7664 139.048 50.7664 137.9V132.977L55.0304 135.439C55.3583 135.628 55.715 135.718 56.0686 135.718C56.7863 135.718 57.486 135.344 57.8705 134.678C58.4451 133.683 58.1044 132.412 57.11 131.838L52.8461 129.377L57.11 126.915C58.1044 126.341 58.4451 125.069 57.8705 124.074Z" fill="#97B0CC"/>
<path d="M139.721 124.074C139.147 123.08 137.876 122.739 136.881 123.314L132.617 125.775V120.852C132.617 119.704 131.687 118.772 130.539 118.772C129.39 118.772 128.459 119.704 128.459 120.852V125.775L124.195 123.314C123.201 122.739 121.93 123.08 121.355 124.074C120.781 125.069 121.122 126.341 122.117 126.915L126.379 129.377L122.117 131.838C121.122 132.412 120.781 133.683 121.355 134.678C121.741 135.345 122.439 135.718 123.158 135.718C123.51 135.718 123.868 135.628 124.195 135.439L128.459 132.977V137.9C128.459 139.048 129.39 139.98 130.539 139.98C131.687 139.98 132.617 139.048 132.617 137.9V132.977L136.881 135.439C137.208 135.628 137.566 135.718 137.918 135.718C138.637 135.718 139.336 135.344 139.721 134.678C140.295 133.683 139.954 132.412 138.96 131.838L134.697 129.377L138.96 126.915C139.954 126.341 140.295 125.069 139.721 124.074Z" fill="#4D87A1"/>
<path d="M79.1826 100.496C78.609 99.5013 77.3369 99.1606 76.3425 99.7342L72.0785 102.196V97.2732C72.0785 96.125 71.1482 95.1936 70 95.1936C68.8518 95.1936 67.9204 96.125 67.9204 97.2732V102.196L63.6575 99.7342C62.662 99.1606 61.391 99.5013 60.8174 100.496C60.2428 101.49 60.5835 102.761 61.5779 103.336L65.8418 105.798L61.5779 108.259C60.5835 108.833 60.2428 110.104 60.8174 111.099C61.2019 111.766 61.9005 112.139 62.6193 112.139C62.9718 112.139 63.3296 112.05 63.6575 111.86L67.9204 109.398V114.321C67.9204 115.47 68.8518 116.401 70 116.401C71.1482 116.401 72.0785 115.47 72.0785 114.321V109.398L76.3425 111.86C76.6704 112.05 77.0271 112.139 77.3807 112.139C78.0984 112.139 78.7981 111.766 79.1826 111.099C79.7572 110.104 79.4165 108.833 78.4221 108.259L74.1582 105.798L78.4221 103.336C79.4165 102.761 79.7572 101.49 79.1826 100.496Z" fill="#84ABC1"/>
</svg>
